<?xml version="1.0" encoding="UTF-8" standalone="no"?>
<svg width="98px" height="97px" viewBox="0 0 98 97" version="1.1" xmlns="http://www.w3.org/2000/svg" xmlns:xlink="http://www.w3.org/1999/xlink">
    <!-- Generator: Sketch 41.1 (35376) - http://www.bohemiancoding.com/sketch -->
    <title>Candy 3</title>
    <desc>Created with Sketch.</desc>
    <defs></defs>
    <g id="Package" stroke="none" stroke-width="1" fill="none" fill-rule="evenodd">
        <g id="Christmas-Outline-Color" transform="translate(-383.000000, -600.000000)">
            <g id="Candy-3" transform="translate(384.000000, 600.000000)">
                <path d="M25.6740043,44.2706558 C25.6740043,44.2706558 33.9403809,51.2549338 42.5285628,54.4775418 C51.1167447,57.7001497 62.5161702,58.4997299 62.5161702,58.4997299 L55.6614872,65.5109515 C55.6614872,65.5109515 43.4002456,63.8493654 36.7685116,61.2365939 C30.1367775,58.6238223 21.2806774,51.6687649 21.2806774,51.6687649 L25.6740043,44.2706558 Z" id="Path-4" fill="#6DB993"></path>
                <path d="M42.2005615,28.3846436 C42.2005615,28.3846436 48.9403809,34.2549338 57.5285628,37.4775418 C66.1167447,40.7001497 74.4512939,40.4859619 74.4512939,40.4859619 L71.9562988,48.6730957 C71.9562988,48.6730957 58.4002456,46.8493654 51.7685116,44.2365939 C45.1367775,41.6238223 36.2806774,34.6687649 36.2806774,34.6687649 L42.2005615,28.3846436 Z" id="Path-4" fill="#6DB993"></path>
                <rect id="Rectangle" stroke="#3D2A1A" stroke-width="2" stroke-linecap="round" transform="translate(47.562446, 48.062446) rotate(-45.000000) translate(-47.562446, -48.062446) " x="17.0624458" y="30.0624458" width="61" height="36" rx="18"></rect>
                <path d="M23.394958,53.6 C32.0738806,60.3114001 42.9906224,64.3097528 54.849077,64.3097528 L54.849077,64.3097528" id="Oval-9" stroke="#3D2A1A" stroke-width="2" stroke-linecap="round" transform="translate(39.122017, 58.954876) rotate(2.000000) translate(-39.122017, -58.954876) "></path>
                <path d="M28.2352941,46.4 C37.6688088,53.6949251 49.5347104,58.040916 62.4242025,58.040916 L62.4242025,58.040916" id="Oval-9" stroke="#3D2A1A" stroke-width="2" stroke-linecap="round"></path>
                <path d="M44.3697479,30.4 C52.6031642,36.7668906 62.9595278,40.5599998 74.2092644,40.5599998 L74.2092644,40.5599998" id="Oval-9" stroke="#3D2A1A" stroke-width="2" stroke-linecap="round"></path>
                <path d="M38.7226891,36.8 C47.9336102,43.9227938 59.5195236,48.1662365 72.1048748,48.1662365 L72.1048748,48.1662365" id="Oval-9" stroke="#3D2A1A" stroke-width="2" stroke-linecap="round"></path>
                <g id="Group" transform="translate(0.000000, 64.000000)">
                    <path d="M26.4757095,32.5769648 C26.864971,32.9662264 27.5002208,32.9620942 27.7193999,32.7429151 L27.7193999,32.7429151 C34.5901941,25.8721208 34.5860435,14.7325679 27.712816,7.85934033 C20.8380772,0.984601558 9.69883252,0.983165068 2.82924119,7.8527564 L2.82924119,7.8527564 C2.53163147,8.15036612 2.60507469,8.70633005 2.99519146,9.09644682 L26.4757095,32.5769648 Z" id="Combined-Shape" fill="#F05C5C"></path>
                    <path d="M24.4757095,30.5769648 C24.864971,30.9662264 25.5002208,30.9620942 25.7193999,30.7429151 L25.7193999,30.7429151 C32.5901941,23.8721208 32.5860435,12.7325679 25.712816,5.85934033 C18.8380772,-1.01539844 7.69883252,-1.01683493 0.829241188,5.8527564 L0.829241188,5.8527564 C0.531631465,6.15036612 0.605074688,6.70633005 0.99519146,7.09644682 L24.4757095,30.5769648 Z" id="Combined-Shape" stroke="#3D2A1A" stroke-width="2" stroke-linecap="round"></path>
                    <g transform="translate(23.424621, 8.424621) rotate(45.000000) translate(-23.424621, -8.424621) translate(17.424621, 3.924621)" id="Line" stroke="#3D2A1A" stroke-width="2" stroke-linecap="round">
                        <path d="M-8.8817842e-14,8.47506355 L5.42469478,0.715526738 C5.74242708,0.261039326 6.2578125,0.261382021 6.57530522,0.715526738 L12,8.47506355"></path>
                        <path d="M6,1 L6,7"></path>
                    </g>
                </g>
                <g id="Group" transform="translate(79.500000, 16.000000) rotate(180.000000) translate(-79.500000, -16.000000) translate(64.000000, 0.000000)">
                    <path d="M22.4757095,28.5769648 C22.864971,28.9662264 23.5002208,28.9620942 23.7193999,28.7429151 L23.7193999,28.7429151 C30.5901941,21.8721208 30.5860435,10.7325679 23.712816,3.85934033 C16.8380772,-3.01539844 5.69883252,-3.01683493 -1.17075881,3.8527564 L-1.17075881,3.8527564 C-1.46836853,4.15036612 -1.39492531,4.70633005 -1.00480854,5.09644682 L22.4757095,28.5769648 Z" id="Combined-Shape" fill="#F05C5C"></path>
                    <path d="M24.4757095,30.5769648 C24.864971,30.9662264 25.5002208,30.9620942 25.7193999,30.7429151 L25.7193999,30.7429151 C32.5901941,23.8721208 32.5860435,12.7325679 25.712816,5.85934033 C18.8380772,-1.01539844 7.69883252,-1.01683493 0.829241188,5.8527564 L0.829241188,5.8527564 C0.531631465,6.15036612 0.605074688,6.70633005 0.99519146,7.09644682 L24.4757095,30.5769648 Z" id="Combined-Shape" stroke="#3D2A1A" stroke-width="2" stroke-linecap="round"></path>
                    <g transform="translate(23.424621, 8.424621) rotate(45.000000) translate(-23.424621, -8.424621) translate(17.424621, 3.924621)" id="Line" stroke="#3D2A1A" stroke-width="2" stroke-linecap="round">
                        <path d="M-8.8817842e-14,8.47506355 L5.42469478,0.715526738 C5.74242708,0.261039326 6.2578125,0.261382021 6.57530522,0.715526738 L12,8.47506355"></path>
                        <path d="M6,1 L6,7"></path>
                    </g>
                </g>
            </g>
        </g>
    </g>
</svg>